# Blender v2.82 (sub 7) OBJ File: ''
# www.blender.org
mtllib eye_norm.mtl
o KitCat_clock.001
v -0.006541 0.003922 -0.000025
v -0.007556 0.000132 -0.000024
v -0.006538 0.000132 0.002890
v 0.003311 -0.001763 0.005017
v 0.005713 -0.003150 0.002881
v 0.006592 0.000132 0.002881
v -0.003766 0.006697 -0.000027
v -0.005658 0.003415 0.002890
v 0.003310 -0.005553 0.002883
v 0.000025 0.007713 -0.000030
v -0.003255 0.005818 0.002888
v 0.000028 -0.003658 0.005020
v 0.000027 -0.006433 0.002885
v 0.003310 0.005818 0.002883
v 0.003815 0.006697 -0.000033
v -0.003255 -0.005553 0.002888
v 0.005713 0.003415 0.002881
v 0.006590 0.003922 -0.000036
v -0.005658 -0.003150 0.002890
v -0.001867 -0.003150 0.005022
v 0.007605 0.000132 -0.000036
v -0.003761 0.000132 0.005023
v 0.006590 -0.003658 -0.000036
v 0.003815 -0.006433 -0.000033
v -0.003254 0.002027 0.005023
v -0.001867 0.003415 0.005022
v 0.000025 -0.007449 -0.000030
v 0.000027 0.006697 0.002885
v -0.003766 -0.006433 -0.000027
v 0.000028 0.003922 0.005020
v 0.001924 0.003415 0.005018
v -0.006541 -0.003658 -0.000025
v 0.003311 0.002027 0.005017
v -0.001670 0.001113 0.005604
v 0.001728 -0.000849 0.005601
v 0.003819 0.000132 0.005017
v 0.001924 -0.003150 0.005018
v -0.000952 0.001831 0.005603
v 0.000029 -0.001830 0.005602
v 0.000029 0.002094 0.005602
v 0.001728 0.001113 0.005601
v -0.001670 -0.000849 0.005604
v -0.003254 -0.001763 0.005023
v -0.000401 -0.000614 0.005603
v -0.000952 -0.001567 0.005603
v 0.000028 0.000140 0.005602
v 0.000029 -0.000729 0.005602
v 0.000459 -0.000614 0.005602
v -0.000399 0.000143 0.005603
v -0.000401 0.000878 0.005603
v -0.000717 0.000563 0.005603
v -0.001933 0.000132 0.005604
v -0.000828 0.000147 0.005603
v 0.000459 0.000136 0.005602
v 0.000775 -0.000298 0.005602
v 0.000775 0.000563 0.005602
v 0.001010 0.001831 0.005602
v 0.001991 0.000132 0.005601
v 0.001010 -0.001567 0.005602
v -0.000717 -0.000298 0.005603
v 0.000459 0.000878 0.005602
v 0.000029 0.000993 0.005602
v 0.000890 0.000132 0.005601
vt 0.639468 0.370240
vt 0.629275 0.397864
vt 0.651176 0.398646
vt 0.700335 0.407785
vt 0.717215 0.417507
vt 0.722872 0.399573
vt 0.660229 0.350817
vt 0.657197 0.381930
vt 0.703671 0.430558
vt 0.687457 0.344280
vt 0.670204 0.370280
vt 0.685978 0.415875
vt 0.685464 0.435227
vt 0.704117 0.370302
vt 0.714462 0.351762
vt 0.667253 0.430196
vt 0.717282 0.382325
vt 0.734606 0.372279
vt 0.654344 0.416515
vt 0.677705 0.413396
vt 0.741773 0.400113
vt 0.670428 0.399297
vt 0.734491 0.428205
vt 0.713239 0.448490
vt 0.673072 0.391624
vt 0.679133 0.386191
vt 0.684773 0.455915
vt 0.687059 0.366084
vt 0.656770 0.448314
vt 0.687061 0.384327
vt 0.694874 0.386516
vt 0.636346 0.426779
vt 0.700788 0.392059
vt 0.679881 0.395895
vt 0.693288 0.403723
vt 0.702867 0.400028
vt 0.694316 0.413664
vt 0.682869 0.393167
vt 0.686289 0.407567
vt 0.686816 0.392216
vt 0.693525 0.396104
vt 0.679511 0.403570
vt 0.672024 0.407259
vt 0.684688 0.402738
vt 0.682310 0.406469
vt 0.686553 0.399823
vt 0.686430 0.403219
vt 0.688189 0.402770
vt 0.684816 0.399789
vt 0.684932 0.396937
vt 0.683610 0.398124
vt 0.678640 0.399692
vt 0.683085 0.399742
vt 0.688303 0.399852
vt 0.689522 0.401539
vt 0.689620 0.398210
vt 0.690715 0.393332
vt 0.694486 0.399952
vt 0.690305 0.406540
vt 0.683449 0.401494
vt 0.688404 0.396984
vt 0.686682 0.396512
vt 0.690038 0.399888
vn -0.8176 0.4721 0.3297
vn -0.9441 0.0000 0.3298
vn -0.8255 -0.0000 0.5645
vn 0.4211 -0.2429 0.8739
vn 0.7157 -0.4129 0.5632
vn 0.8263 -0.0000 0.5632
vn -0.4720 0.8178 0.3293
vn -0.7148 0.4129 0.5644
vn 0.4134 -0.7152 0.5635
vn 0.0001 0.9444 0.3289
vn -0.4125 0.7154 0.5641
vn 0.0008 -0.4855 0.8742
vn 0.0004 -0.8259 0.5638
vn 0.4134 0.7154 0.5633
vn 0.4725 0.8179 0.3284
vn -0.4125 -0.7153 0.5642
vn 0.7158 0.4129 0.5632
vn 0.8182 0.4721 0.3281
vn -0.7148 -0.4129 0.5644
vn -0.2421 -0.4206 0.8744
vn 0.9447 -0.0000 0.3281
vn -0.4850 -0.0000 0.8745
vn 0.8181 -0.4722 0.3282
vn 0.4725 -0.8178 0.3286
vn -0.4200 0.2426 0.8745
vn -0.2420 0.4205 0.8744
vn 0.0003 -0.9443 0.3291
vn 0.0002 0.8259 0.5638
vn -0.4719 -0.8177 0.3296
vn 0.0008 0.4855 0.8742
vn 0.2434 0.4206 0.8740
vn -0.8175 -0.4721 0.3299
vn 0.4211 0.2428 0.8739
vn -0.1535 0.0891 0.9841
vn 0.1554 -0.0893 0.9838
vn 0.4862 -0.0000 0.8739
vn 0.2436 -0.4204 0.8740
vn -0.0880 0.1546 0.9840
vn 0.0007 -0.1786 0.9839
vn 0.0007 0.1785 0.9839
vn 0.1556 0.0893 0.9838
vn -0.1536 -0.0891 0.9841
vn -0.4199 -0.2426 0.8745
vn 0.0010 -0.0000 1.0000
vn -0.0876 -0.1547 0.9841
vn 0.0001 -0.0007 1.0000
vn 0.0013 0.0017 1.0000
vn 0.0002 -0.0009 1.0000
vn 0.0006 -0.0005 1.0000
vn 0.0012 0.0001 1.0000
vn 0.0004 -0.0000 1.0000
vn -0.1776 0.0000 0.9841
vn 0.0003 0.0002 1.0000
vn 0.0007 -0.0000 1.0000
vn -0.0002 0.0010 1.0000
vn 0.0002 -0.0016 1.0000
vn 0.0899 0.1548 0.9839
vn 0.1791 -0.0000 0.9838
vn 0.0893 -0.1547 0.9839
vn 0.0003 -0.0001 1.0000
vn -0.0003 -0.0001 1.0000
vn 0.0002 0.0014 1.0000
vn 0.0005 -0.0018 1.0000
usemtl Clock_main.001
s 1
f 1/1/1 2/2/2 3/3/3
f 4/4/4 5/5/5 6/6/6
f 7/7/7 1/1/1 8/8/8
f 9/9/9 5/5/5 4/4/4
f 10/10/10 7/7/7 11/11/11
f 12/12/12 13/13/13 9/9/9
f 14/14/14 15/15/15 10/10/10
f 16/16/16 13/13/13 12/12/12
f 17/17/17 18/18/18 15/15/15
f 19/19/19 16/16/16 20/20/20
f 6/6/6 21/21/21 18/18/18
f 22/22/22 3/3/3 19/19/19
f 5/5/5 23/23/23 21/21/21
f 8/8/8 3/3/3 22/22/22
f 9/9/9 24/24/24 23/23/23
f 8/8/8 25/25/25 26/26/26
f 13/13/13 27/27/27 24/24/24
f 28/28/28 11/11/11 26/26/26
f 16/16/16 29/29/29 27/27/27
f 28/28/28 30/30/30 31/31/31
f 32/32/32 29/29/29 16/16/16
f 17/17/17 14/14/14 31/31/31
f 3/3/3 2/2/2 32/32/32
f 6/6/6 17/17/17 33/33/33
f 34/34/34 25/25/25 22/22/22
f 35/35/35 4/4/4 36/36/36
f 26/26/26 25/25/25 34/34/34
f 37/37/37 4/4/4 35/35/35
f 30/30/30 26/26/26 38/38/38
f 39/39/39 12/12/12 37/37/37
f 31/31/31 30/30/30 40/40/40
f 20/20/20 12/12/12 39/39/39
f 41/41/41 33/33/33 31/31/31
f 42/42/42 43/43/43 20/20/20
f 36/36/36 33/33/33 41/41/41
f 22/22/22 43/43/43 42/42/42
f 44/44/44 45/45/45 39/39/39
f 46/46/46 47/47/47 48/48/48
f 49/49/49 50/50/50 51/51/51
f 34/34/34 52/52/52 53/53/53
f 54/54/54 48/48/48 55/55/55
f 56/56/56 41/41/41 57/57/57
f 58/58/58 41/41/41 56/56/56
f 55/55/55 35/35/35 58/58/58
f 48/48/48 59/59/59 35/35/35
f 39/39/39 59/59/59 48/48/48
f 44/44/44 47/47/47 46/46/46
f 42/42/42 45/45/45 44/44/44
f 52/52/52 42/42/42 60/60/60
f 46/46/46 54/54/54 61/61/61
f 38/38/38 34/34/34 51/51/51
f 40/40/40 38/38/38 50/50/50
f 61/61/61 57/57/57 40/40/40
f 60/60/60 44/44/44 49/49/49
f 46/46/46 62/62/62 50/50/50
f 56/56/56 61/61/61 54/54/54
f 1/1/1 3/3/3 8/8/8
f 4/4/4 6/6/6 36/36/36
f 7/7/7 8/8/8 11/11/11
f 9/9/9 4/4/4 37/37/37
f 10/10/10 11/11/11 28/28/28
f 12/12/12 9/9/9 37/37/37
f 14/14/14 10/10/10 28/28/28
f 16/16/16 12/12/12 20/20/20
f 17/17/17 15/15/15 14/14/14
f 19/19/19 20/20/20 43/43/43
f 6/6/6 18/18/18 17/17/17
f 22/22/22 19/19/19 43/43/43
f 5/5/5 21/21/21 6/6/6
f 8/8/8 22/22/22 25/25/25
f 9/9/9 23/23/23 5/5/5
f 8/8/8 26/26/26 11/11/11
f 13/13/13 24/24/24 9/9/9
f 28/28/28 26/26/26 30/30/30
f 16/16/16 27/27/27 13/13/13
f 28/28/28 31/31/31 14/14/14
f 32/32/32 16/16/16 19/19/19
f 17/17/17 31/31/31 33/33/33
f 3/3/3 32/32/32 19/19/19
f 6/6/6 33/33/33 36/36/36
f 34/34/34 22/22/22 52/52/52
f 35/35/35 36/36/36 58/58/58
f 26/26/26 34/34/34 38/38/38
f 37/37/37 35/35/35 59/59/59
f 30/30/30 38/38/38 40/40/40
f 39/39/39 37/37/37 59/59/59
f 31/31/31 40/40/40 57/57/57
f 20/20/20 39/39/39 45/45/45
f 41/41/41 31/31/31 57/57/57
f 42/42/42 20/20/20 45/45/45
f 36/36/36 41/41/41 58/58/58
f 22/22/22 42/42/42 52/52/52
f 44/44/44 39/39/39 47/47/47
f 46/46/46 48/48/48 54/54/54
f 49/49/49 51/51/51 53/53/53
f 34/34/34 53/53/53 51/51/51
f 54/54/54 55/55/55 63/63/63
f 56/56/56 57/57/57 61/61/61
f 58/58/58 56/56/56 63/63/63
f 55/55/55 58/58/58 63/63/63
f 48/48/48 35/35/35 55/55/55
f 39/39/39 48/48/48 47/47/47
f 44/44/44 46/46/46 49/49/49
f 42/42/42 44/44/44 60/60/60
f 52/52/52 60/60/60 53/53/53
f 46/46/46 61/61/61 62/62/62
f 38/38/38 51/51/51 50/50/50
f 40/40/40 50/50/50 62/62/62
f 61/61/61 40/40/40 62/62/62
f 60/60/60 49/49/49 53/53/53
f 46/46/46 50/50/50 49/49/49
f 56/56/56 54/54/54 63/63/63
