# Blender v2.82 (sub 7) OBJ File: 'clockhand2.blend'
# www.blender.org
mtllib clockhand2.mtl
o KitCat_clock.004
v -0.001835 0.000767 0.028310
v -0.001835 0.000767 0.027446
v -0.001987 0.000000 0.027446
v -0.001987 0.000000 0.028310
v -0.001400 0.001417 0.028310
v -0.001400 0.001417 0.027446
v -0.000750 0.001852 0.028310
v -0.000750 0.001852 0.027446
v 0.000017 0.010853 0.028310
v 0.000017 0.010853 0.027446
v -0.000423 0.010628 0.027446
v -0.000423 0.010628 0.028310
v 0.000457 0.010628 0.028310
v 0.000457 0.010628 0.027446
v 0.001434 0.001417 0.028310
v 0.001434 0.001417 0.027446
v 0.000784 0.001852 0.027446
v 0.000784 0.001852 0.028310
v 0.001869 0.000767 0.028310
v 0.001869 0.000767 0.027446
v 0.002021 0.000000 0.028310
v 0.002021 0.000000 0.027446
v 0.001869 -0.000767 0.028310
v 0.001869 -0.000767 0.027446
v 0.001434 -0.001417 0.028310
v 0.001434 -0.001417 0.027446
v 0.000784 -0.001852 0.028310
v 0.000784 -0.001852 0.027446
v 0.000017 -0.002004 0.028310
v 0.000017 -0.002004 0.027446
v -0.000750 -0.001852 0.028310
v -0.000750 -0.001852 0.027446
v -0.001400 -0.001417 0.028310
v -0.001400 -0.001417 0.027446
v -0.001835 -0.000767 0.028310
v -0.001835 -0.000767 0.027446
v -0.001457 0.000611 0.028310
v -0.001578 0.000000 0.028310
v -0.001578 0.000000 0.027446
v -0.001457 0.000611 0.027446
v -0.001111 0.001128 0.028310
v -0.001111 0.001128 0.027446
v -0.000593 0.001474 0.028310
v -0.000593 0.001474 0.027446
v 0.000017 0.001595 0.028310
v 0.000017 0.002004 0.028310
v 0.000017 0.002004 0.027446
v 0.000017 0.001595 0.027446
v 0.000628 0.001474 0.028310
v 0.000628 0.001474 0.027446
v 0.001145 0.001128 0.028310
v 0.001145 0.001128 0.027446
v 0.001491 0.000611 0.028310
v 0.001491 0.000611 0.027446
v 0.001613 0.000000 0.028310
v 0.001613 0.000000 0.027446
v 0.001491 -0.000611 0.028310
v 0.001491 -0.000611 0.027446
v 0.001145 -0.001128 0.028310
v 0.001145 -0.001128 0.027446
v 0.000628 -0.001474 0.028310
v 0.000628 -0.001474 0.027446
v 0.000017 -0.001595 0.028310
v 0.000017 -0.001595 0.027446
v -0.000593 -0.001474 0.028310
v -0.000593 -0.001474 0.027446
v -0.001111 -0.001128 0.028310
v -0.001111 -0.001128 0.027446
v -0.001457 -0.000611 0.028310
v -0.001457 -0.000611 0.027446
v 0.000017 0.002401 0.028310
v -0.000435 0.002318 0.028310
v -0.000435 0.002318 0.027446
v -0.000385 0.003226 0.027446
v 0.000017 0.003176 0.027446
v 0.000017 0.002401 0.027446
v -0.000385 0.003226 0.028310
v 0.000470 0.002318 0.028310
v 0.000470 0.002318 0.027446
v 0.000420 0.003226 0.027446
v 0.000017 0.003176 0.028310
v 0.000017 0.005121 0.028310
v -0.000534 0.005201 0.028310
v -0.000534 0.005201 0.027446
v -0.001158 0.007771 0.027446
v 0.000017 0.006799 0.027446
v 0.000017 0.005121 0.027446
v -0.001158 0.007771 0.028310
v 0.000420 0.003226 0.028310
v 0.000568 0.005201 0.028310
v 0.000568 0.005201 0.027446
v 0.001193 0.007771 0.027446
v 0.000017 0.006799 0.028310
v 0.000017 0.007458 0.028310
v -0.000468 0.007747 0.028310
v -0.000468 0.007747 0.027446
v 0.000017 0.007458 0.027446
v 0.001193 0.007771 0.028310
v 0.000502 0.007747 0.028310
v 0.000502 0.007747 0.027446
vt 0.062500 1.000000
vt 0.000000 0.000000
vt 0.062500 0.000000
vt 0.125000 1.000000
vt 0.125000 0.000000
vt 0.187500 1.000000
vt 0.187500 0.000000
vt 0.250000 1.000000
vt 0.187500 0.000000
vt 0.250000 0.000000
vt 0.312500 1.000000
vt 0.312500 0.000000
vt 0.375000 1.000000
vt 0.312500 0.000000
vt 0.375000 0.000000
vt 0.437500 1.000000
vt 0.437500 0.000000
vt 0.500000 1.000000
vt 0.500000 0.000000
vt 0.562500 1.000000
vt 0.562500 0.000000
vt 0.625000 1.000000
vt 0.625000 0.000000
vt 0.687500 1.000000
vt 0.687500 0.000000
vt 0.750000 1.000000
vt 0.750000 0.000000
vt 0.812500 1.000000
vt 0.812500 0.000000
vt 0.875000 1.000000
vt 0.875000 0.000000
vt 0.937500 1.000000
vt 0.937500 0.000000
vt 1.000000 1.000000
vt 1.000000 0.000000
vt 0.062500 0.000000
vt 0.000000 0.000000
vt 0.000000 1.000000
vt 0.062500 1.000000
vt 0.000000 1.000000
vt 0.125000 0.000000
vt 0.125000 1.000000
vt 0.187500 0.000000
vt 0.187500 1.000000
vt 0.250000 0.000000
vt 0.250000 0.000000
vt 0.250000 1.000000
vt 0.250000 1.000000
vt 0.312500 0.000000
vt 0.312500 1.000000
vt 0.375000 0.000000
vt 0.375000 1.000000
vt 0.437500 0.000000
vt 0.437500 1.000000
vt 0.500000 0.000000
vt 0.500000 1.000000
vt 0.562500 0.000000
vt 0.562500 1.000000
vt 0.625000 0.000000
vt 0.625000 1.000000
vt 0.687500 0.000000
vt 0.687500 1.000000
vt 0.750000 0.000000
vt 0.750000 1.000000
vt 0.812500 0.000000
vt 0.812500 1.000000
vt 0.875000 0.000000
vt 0.875000 1.000000
vt 0.937500 0.000000
vt 0.937500 1.000000
vt 1.000000 0.000000
vt 1.000000 1.000000
vt 0.187500 0.000000
vt 0.187500 1.000000
vt 0.250000 1.000000
vt 0.187500 1.000000
vt 0.187500 0.000000
vt 0.312500 0.000000
vt 0.312500 1.000000
vt 0.312500 1.000000
vt 0.312500 1.000000
vt 0.250000 0.000000
vt 0.250000 0.000000
vt 0.187500 1.000000
vt 0.250000 1.000000
vt 0.250000 1.000000
vt 0.187500 0.000000
vt 0.187500 0.000000
vt 0.312500 0.000000
vt 0.312500 1.000000
vt 0.250000 0.000000
vt 0.187500 0.000000
vt 0.187500 1.000000
vt 0.187500 1.000000
vt 0.312500 0.000000
vt 0.312500 0.000000
vt 0.312500 1.000000
vt 0.312500 1.000000
vt 0.250000 0.000000
vt 0.250000 1.000000
vt 0.250000 0.000000
vt 0.312500 0.000000
vt 0.187500 1.000000
vt 0.250000 1.000000
vn -0.9809 0.1944 0.0000
vn -0.8311 0.5562 0.0000
vn -0.5562 0.8311 0.0000
vn -0.4553 0.8903 0.0000
vn 0.4553 0.8903 0.0000
vn 0.5562 0.8311 0.0000
vn 0.8311 0.5562 0.0000
vn 0.9809 0.1944 0.0000
vn 0.9809 -0.1944 -0.0000
vn 0.8311 -0.5562 -0.0000
vn 0.5562 -0.8311 0.0000
vn 0.1944 -0.9809 0.0000
vn -0.1944 -0.9809 -0.0000
vn -0.5562 -0.8311 0.0000
vn -0.8311 -0.5562 -0.0000
vn -0.9809 -0.1944 -0.0000
vn 0.0000 0.0000 1.0000
vn 0.0000 0.0000 -1.0000
vn -0.9985 0.0550 0.0000
vn 0.8293 0.5588 0.0000
vn -0.9718 -0.2359 0.0000
vn 0.9972 -0.0747 0.0000
vn 0.0348 0.9994 0.0000
vn -0.0347 0.9994 0.0000
vn -0.9999 0.0156 0.0000
vn 0.9999 0.0156 0.0000
vn -0.8285 0.5600 0.0000
vn 0.9985 0.0550 0.0000
vn -0.9972 -0.0752 0.0000
vn 0.9717 -0.2363 0.0000
usemtl clock_hands
s off
f 2/1/1 4/2/1 1/3/1
f 6/4/2 1/3/2 5/5/2
f 8/6/3 5/5/3 7/7/3
f 10/8/4 12/9/4 9/10/4
f 14/11/5 9/10/5 13/12/5
f 16/13/6 18/14/6 15/15/6
f 20/16/7 15/15/7 19/17/7
f 22/18/8 19/17/8 21/19/8
f 24/20/9 21/19/9 23/21/9
f 26/22/10 23/21/10 25/23/10
f 28/24/11 25/23/11 27/25/11
f 30/26/12 27/25/12 29/27/12
f 32/28/13 29/27/13 31/29/13
f 34/30/14 31/29/14 33/31/14
f 36/32/15 33/31/15 35/33/15
f 3/34/16 35/33/16 4/35/16
f 37/36/17 4/2/17 38/37/17
f 3/38/18 40/39/18 39/40/18
f 5/5/17 37/36/17 41/41/17
f 40/39/18 6/4/18 42/42/18
f 7/7/17 41/41/17 43/43/17
f 42/42/18 8/6/18 44/44/18
f 46/45/17 43/43/17 45/46/17
f 44/44/18 47/47/18 48/48/18
f 49/49/17 46/45/17 45/46/17
f 47/47/18 50/50/18 48/48/18
f 15/15/17 49/49/17 51/51/17
f 50/50/18 16/13/18 52/52/18
f 53/53/17 15/15/17 51/51/17
f 16/13/18 54/54/18 52/52/18
f 55/55/17 19/17/17 53/53/17
f 20/16/18 56/56/18 54/54/18
f 23/21/17 55/55/17 57/57/17
f 56/56/18 24/20/18 58/58/18
f 25/23/17 57/57/17 59/59/17
f 58/58/18 26/22/18 60/60/18
f 61/61/17 25/23/17 59/59/17
f 26/22/18 62/62/18 60/60/18
f 29/27/17 61/61/17 63/63/17
f 62/62/18 30/26/18 64/64/18
f 65/65/17 29/27/17 63/63/17
f 30/26/18 66/66/18 64/64/18
f 67/67/17 31/29/17 65/65/17
f 32/28/18 68/68/18 66/66/18
f 69/69/17 33/31/17 67/67/17
f 34/30/18 70/70/18 68/68/18
f 4/35/17 69/69/17 38/71/17
f 70/70/18 3/34/18 39/72/18
f 46/45/17 72/73/17 7/7/17
f 74/74/18 76/75/18 73/76/18
f 77/77/19 73/76/19 72/73/19
f 78/78/17 46/45/17 18/14/17
f 79/79/20 18/14/20 17/80/20
f 76/75/18 80/81/18 79/79/18
f 82/82/17 77/77/17 81/83/17
f 84/84/18 86/85/18 87/86/18
f 88/87/21 84/84/21 83/88/21
f 89/89/17 82/82/17 81/83/17
f 91/90/22 89/89/22 80/81/22
f 86/85/18 91/90/18 87/86/18
f 93/91/17 95/92/17 88/87/17
f 96/93/18 86/85/18 85/94/18
f 95/92/23 85/94/23 88/87/23
f 99/95/17 93/91/17 98/96/17
f 100/97/24 98/96/24 92/98/24
f 86/85/18 100/97/18 92/98/18
f 9/10/17 95/92/17 94/99/17
f 96/93/18 10/8/18 97/100/18
f 12/9/25 96/93/25 95/92/25
f 99/95/17 9/10/17 94/99/17
f 14/11/26 99/95/26 100/97/26
f 10/8/18 100/97/18 97/100/18
f 71/101/17 77/77/17 72/73/17
f 47/47/18 73/76/18 76/75/18
f 8/6/27 72/73/27 73/76/27
f 89/89/17 71/101/17 78/78/17
f 80/81/28 78/78/28 79/79/28
f 79/79/18 47/47/18 76/75/18
f 93/91/17 83/88/17 82/82/17
f 87/86/18 74/74/18 84/84/18
f 74/74/29 83/88/29 84/84/29
f 90/102/17 93/91/17 82/82/17
f 92/98/30 90/102/30 91/90/30
f 80/81/18 87/86/18 91/90/18
f 2/1/1 3/38/1 4/2/1
f 6/4/2 2/1/2 1/3/2
f 8/6/3 6/4/3 5/5/3
f 10/8/4 11/103/4 12/9/4
f 14/11/5 10/8/5 9/10/5
f 16/13/6 17/80/6 18/14/6
f 20/16/7 16/13/7 15/15/7
f 22/18/8 20/16/8 19/17/8
f 24/20/9 22/18/9 21/19/9
f 26/22/10 24/20/10 23/21/10
f 28/24/11 26/22/11 25/23/11
f 30/26/12 28/24/12 27/25/12
f 32/28/13 30/26/13 29/27/13
f 34/30/14 32/28/14 31/29/14
f 36/32/15 34/30/15 33/31/15
f 3/34/16 36/32/16 35/33/16
f 37/36/17 1/3/17 4/2/17
f 3/38/18 2/1/18 40/39/18
f 5/5/17 1/3/17 37/36/17
f 40/39/18 2/1/18 6/4/18
f 7/7/17 5/5/17 41/41/17
f 42/42/18 6/4/18 8/6/18
f 46/45/17 7/7/17 43/43/17
f 44/44/18 8/6/18 47/47/18
f 49/49/17 18/14/17 46/45/17
f 47/47/18 17/80/18 50/50/18
f 15/15/17 18/14/17 49/49/17
f 50/50/18 17/80/18 16/13/18
f 53/53/17 19/17/17 15/15/17
f 16/13/18 20/16/18 54/54/18
f 55/55/17 21/19/17 19/17/17
f 20/16/18 22/18/18 56/56/18
f 23/21/17 21/19/17 55/55/17
f 56/56/18 22/18/18 24/20/18
f 25/23/17 23/21/17 57/57/17
f 58/58/18 24/20/18 26/22/18
f 61/61/17 27/25/17 25/23/17
f 26/22/18 28/24/18 62/62/18
f 29/27/17 27/25/17 61/61/17
f 62/62/18 28/24/18 30/26/18
f 65/65/17 31/29/17 29/27/17
f 30/26/18 32/28/18 66/66/18
f 67/67/17 33/31/17 31/29/17
f 32/28/18 34/30/18 68/68/18
f 69/69/17 35/33/17 33/31/17
f 34/30/18 36/32/18 70/70/18
f 4/35/17 35/33/17 69/69/17
f 70/70/18 36/32/18 3/34/18
f 46/45/17 71/101/17 72/73/17
f 74/74/18 75/104/18 76/75/18
f 77/77/19 74/74/19 73/76/19
f 78/78/17 71/101/17 46/45/17
f 79/79/20 78/78/20 18/14/20
f 76/75/18 75/104/18 80/81/18
f 82/82/17 83/88/17 77/77/17
f 84/84/18 85/94/18 86/85/18
f 88/87/21 85/94/21 84/84/21
f 89/89/17 90/102/17 82/82/17
f 91/90/22 90/102/22 89/89/22
f 86/85/18 92/98/18 91/90/18
f 93/91/17 94/99/17 95/92/17
f 96/93/18 97/100/18 86/85/18
f 95/92/23 96/93/23 85/94/23
f 99/95/17 94/99/17 93/91/17
f 100/97/24 99/95/24 98/96/24
f 86/85/18 97/100/18 100/97/18
f 9/10/17 12/9/17 95/92/17
f 96/93/18 11/103/18 10/8/18
f 12/9/25 11/103/25 96/93/25
f 99/95/17 13/12/17 9/10/17
f 14/11/26 13/12/26 99/95/26
f 10/8/18 14/11/18 100/97/18
f 71/101/17 81/83/17 77/77/17
f 47/47/18 8/6/18 73/76/18
f 8/6/27 7/7/27 72/73/27
f 89/89/17 81/83/17 71/101/17
f 80/81/28 89/89/28 78/78/28
f 79/79/18 17/80/18 47/47/18
f 93/91/17 88/87/17 83/88/17
f 87/86/18 75/104/18 74/74/18
f 74/74/29 77/77/29 83/88/29
f 90/102/17 98/96/17 93/91/17
f 92/98/30 98/96/30 90/102/30
f 80/81/18 75/104/18 87/86/18
